<?xml version="1.0" standalone="no"?>
<!DOCTYPE svg PUBLIC "-//W3C//DTD SVG 20010904//EN"
 "http://www.w3.org/TR/2001/REC-SVG-20010904/DTD/svg10.dtd">
<svg version="1.0" xmlns="http://www.w3.org/2000/svg"
 width="512.000000pt" height="512.000000pt" viewBox="0 0 512.000000 512.000000"
 preserveAspectRatio="xMidYMid meet">
<metadata>
Created by potrace 1.14, written by Peter Selinger 2001-2017
</metadata>
<g transform="translate(0.000000,512.000000) scale(0.100000,-0.100000)"
fill="#000000" stroke="none">
<path d="M605 5105 c-197 -43 -354 -147 -473 -314 -52 -73 -87 -153 -119 -276
-4 -16 -9 -885 -10 -1930 -2 -2001 -3 -1960 40 -2081 62 -171 178 -311 334
-402 52 -31 161 -74 224 -88 19 -5 891 -9 1939 -11 1617 -2 1915 0 1971 12
240 52 430 198 530 410 81 169 74 -30 76 2110 1 1176 -1 1929 -7 1960 -50 261
-230 482 -467 571 -74 28 -82 30 -163 44 -34 6 -782 10 -1935 9 -1516 -1
-1892 -3 -1940 -14z"/>
</g>
</svg>
